<svg xmlns="http://www.w3.org/2000/svg" viewBox="0 0 512 512"><path d="M80 96H64c-35.346 0-64 28.654-64 64v288c0 35.346 28.654 64 64 64h16c35.346 0 64-28.654 64-64V160c0-35.346-28.654-64-64-64zm16 352c0 8.823-7.177 16-16 16H64c-8.823 0-16-7.177-16-16V160c0-8.823 7.177-16 16-16h16c8.823 0 16 7.177 16 16v288zm160-124v-40c0-6.627 5.373-12 12-12h40c6.627 0 12 5.373 12 12v40c0 6.627-5.373 12-12 12h-40c-6.627 0-12-5.373-12-12zm0 96v-40c0-6.627 5.373-12 12-12h40c6.627 0 12 5.373 12 12v40c0 6.627-5.373 12-12 12h-40c-6.627 0-12-5.373-12-12zm96-96v-40c0-6.627 5.373-12 12-12h40c6.627 0 12 5.373 12 12v40c0 6.627-5.373 12-12 12h-40c-6.627 0-12-5.373-12-12zm0 96v-40c0-6.627 5.373-12 12-12h40c6.627 0 12 5.373 12 12v40c0 6.627-5.373 12-12 12h-40c-6.627 0-12-5.373-12-12zm128-289.258V88.568a39.996 39.996 0 0 0-11.716-28.284l-48.569-48.569A39.999 39.999 0 0 0 391.432 0H200c-22.091 0-40 17.909-40 40v424c0 26.51 21.49 48 48 48h256c26.51 0 48-21.49 48-48V176c0-20.898-13.359-38.667-32-45.258zM208 48h176v24c0 13.203 10.797 24 24 24h24v96H208V48zm256 416H208V240h256v224z"/></svg>